HIERARCHY
ROOT Hips
{
  OFFSET 1.44925e-005 102.336 -0.101585
  CHANNELS 6 Xposition Yposition Zposition Zrotation Xrotation Yrotation
  JOINT LeftUpLeg
  {
    OFFSET 8.9458 -8.66707 0.101652
    CHANNELS 3 Zrotation Xrotation Yrotation
    JOINT LeftLeg
    {
      OFFSET 0 -44.4227 1.3727
      CHANNELS 3 Zrotation Xrotation Yrotation
      JOINT LeftFoot
      {
        OFFSET -0.253549 -42.0924 -1.46059
        CHANNELS 3 Zrotation Xrotation Yrotation
        JOINT LeftToes
        {
          OFFSET -0.04 -4.41509 8.4991
          CHANNELS 3 Zrotation Xrotation Yrotation
          End Site
          {
            OFFSET 0.08 -0.047448 9.77979
          }
        }
      }
    }
  }
  JOINT Spine
  {
    OFFSET 0 11.8905 0
    CHANNELS 3 Zrotation Xrotation Yrotation
    JOINT Spine1
    {
      OFFSET 0 25.6574 0.127663
      CHANNELS 3 Zrotation Xrotation Yrotation
      JOINT RightShoulder
      {
        OFFSET -8.99 -0.362252 -0.22
        CHANNELS 3 Zrotation Xrotation Yrotation
        JOINT RightArm
        {
          OFFSET -10.2827 -0.00338 0.322123
          CHANNELS 3 Zrotation Xrotation Yrotation
          JOINT RightForeArm
          {
            OFFSET -26.364 0.099144 -1.42434
            CHANNELS 3 Zrotation Xrotation Yrotation
            JOINT RightHand
            {
              OFFSET -22.0324 0.085362 1.02216
              CHANNELS 3 Zrotation Xrotation Yrotation
              End Site
              {
                OFFSET -13.3284 -0.6 1.50291
              }
            }
          }
        }
      }
      JOINT LeftShoulder1
      {
        OFFSET 8.99 -0.362252 -0.22
        CHANNELS 3 Zrotation Xrotation Yrotation
        JOINT LeftArm
        {
          OFFSET 10.2827 -0.00337999 0.322123
          CHANNELS 3 Zrotation Xrotation Yrotation
          JOINT LeftForeArm
          {
            OFFSET 26.2597 0.099144 -1.42434
            CHANNELS 3 Zrotation Xrotation Yrotation
            JOINT LeftHand
            {
              OFFSET 22.0902 0.085362 1.02216
              CHANNELS 3 Zrotation Xrotation Yrotation
              End Site
              {
                OFFSET 13.419 -0.6 1.50291
              }
            }
          }
        }
      }
      JOINT Head
      {
        OFFSET 0 8.73416 0.011341
        CHANNELS 3 Zrotation Xrotation Yrotation
        End Site
        {
          OFFSET -0.29 12.7742 2.51395
        }
      }
    }
  }
  JOINT RightUpLeg
  {
    OFFSET -8.9458 -8.66707 0.101652
    CHANNELS 3 Zrotation Xrotation Yrotation
    JOINT RightLeg
    {
      OFFSET 0 -44.4227 1.3727
      CHANNELS 3 Zrotation Xrotation Yrotation
      JOINT RightFoot
      {
        OFFSET 0.253549 -42.0924 -1.46059
        CHANNELS 3 Zrotation Xrotation Yrotation
        JOINT RightToes
        {
          OFFSET 0.04 -4.41509 8.4991
          CHANNELS 3 Zrotation Xrotation Yrotation
          End Site
          {
            OFFSET -0.08 -0.137448 9.77979
          }
        }
      }
    }
  }
}
MOTION
Frames:	7
Frame Time:	0.0333333
50.5936 96.9093 2.91633 -9.41765 -2.23237 -93.9421 -9.25292 17.1605 4.25691 0.0967161 19.0858 21.837 -3.20933 -28.9057 -0.457903 -1.32361e-009 8.75227e-006 -1.45912e-008 -2.62655 14.3081 -1.22363 0.398469 0.697693 -1.5821 38.0185 1.78605 0.0473664 37.967 -15.6696 2.03172 6.86362 32.7242 11.4405 -8.09256 9.56583 -0.177513 -44.1663 3.43385 -3.25526 -25.4916 -12.124 -4.45105 3.82359 29.8977 -33.1908 5.82328 9.61819 -0.917488 -0.252836 -9.32884 -4.67275 -2.23641 -22.5146 -2.05072 1.09174 13.9327 -14.9229 14.4613 -14.1027 0.612448 0.0462048 0.000530889 0.662642 
46.6937 96.3131 2.50052 -8.85475 -2.38133 -92.6615 -8.63906 18.8587 4.73451 0.437418 19.8795 19.4835 -5.31913 -29.3153 -0.884885 -1.32361e-009 8.75227e-006 -1.45912e-008 -2.50785 13.1022 -1.43474 1.14054 0.918781 -1.90819 38.1167 1.78595 0.031366 37.7184 -17.6034 1.91372 7.32155 34.9291 10.1111 -7.76446 9.58398 -0.233944 -44.3239 3.44636 -3.25683 -25.3344 -10.5827 -4.00044 3.45569 29.5848 -32.4421 5.82328 9.61819 -0.917488 -0.278555 -8.82836 -4.96473 -1.96071 -21.5012 -1.67788 1.04123 13.3352 -15.4799 12.3626 -12.9817 0.389169 0.0462048 0.000530889 0.662642 
42.6583 95.9621 2.01698 -8.17356 -1.66551 -91.7954 -7.19517 20.3709 4.83578 0.829509 20.9274 17.6804 -7.45323 -28.4804 -1.25579 -1.32361e-009 8.75227e-006 -1.45912e-008 -1.15996 12.0578 -1.62984 1.50592 0.907358 -2.01881 38.3381 1.78576 0.00749273 37.3308 -20.1166 1.56213 7.85292 37.1278 8.56486 -7.78339 9.57913 -0.167213 -44.504 3.46908 -3.275 -25.1264 -8.12176 -3.2542 2.44929 28.6423 -30.3225 5.82328 9.61819 -0.917488 -0.375066 -8.66383 -5.29922 -0.573841 -21.589 -1.43428 0.803272 15.7819 -17.2404 7.39667 -9.30619 -0.0663718 0.0462048 0.000530889 0.662642 
38.4925 95.6999 1.57246 -7.71653 -0.236726 -91.8861 -5.0272 21.5424 5.01385 0.994871 23.1853 16.948 -10.7312 -27.0514 -1.74258 -1.32361e-009 8.75227e-006 -1.45912e-008 1.95156 11.364 -1.70216 0.786667 0.839329 -1.62898 38.5525 1.78543 -0.00310835 37.0632 -22.9205 1.64543 8.63887 39.3788 6.46404 -8.12009 9.55767 -0.0634884 -44.7354 3.50131 -3.30402 -25.2209 -5.50026 -2.24104 0.969566 26.8946 -26.9798 5.82328 9.61819 -0.917488 -0.498167 -9.22652 -5.34471 1.9293 -22.6546 -1.58254 0.324733 20.81 -17.4087 3.28933 -5.47354 -0.228188 0.0462048 0.000530889 0.662642 
34.3535 95.5534 1.13955 -7.60487 1.75462 -92.4387 -2.56364 21.7731 5.75269 0.969051 27.6244 16.2876 -14.4757 -24.2122 -2.03207 -1.32361e-009 8.75227e-006 -1.45912e-008 5.33559 11.1558 -1.79415 -0.224305 0.801363 -1.15353 38.5315 1.78492 0.0108477 37.3186 -25.0346 2.57018 9.59433 41.3236 4.02726 -8.24219 9.56178 -0.221032 -44.944 3.52343 -3.31645 -25.8121 -4.02467 -0.750617 -0.558608 25.3469 -23.2103 5.82328 9.61819 -0.917488 -0.442591 -10.3086 -4.84176 4.58202 -23.0096 -2.30043 -0.566974 25.6805 -15.2384 1.32039 -4.30741 -0.192521 0.0462048 0.000530889 0.662642 
30.4003 95.5724 0.598425 -7.55226 3.0272 -92.3555 -0.027221 19.6851 5.85185 1.0385 35.4447 15.5862 -15.4256 -18.1596 -1.37962 -1.32361e-009 8.75227e-006 -1.45912e-008 7.22683 11.2758 -2.11953 -0.235015 0.506426 -1.16165 38.3287 1.78418 0.029539 37.863 -25.7989 3.5951 10.1269 42.2413 2.58179 -8.05056 9.58962 -0.536333 -45.0718 3.52685 -3.30446 -26.4249 -5.72354 1.11579 -2.11946 27.3176 -19.704 5.82328 9.61819 -0.917488 -0.113354 -11.1249 -4.27285 6.32232 -22.2859 -2.5968 -0.97907 29.169 -14.0378 -0.183794 -6.34353 -0.164252 0.0462048 0.000530889 0.662642 
26.7931 95.7414 -0.0547349 -7.29602 3.79399 -91.0189 2.39832 14.822 4.13326 1.21207 45.8367 15.6244 -12.2779 -8.8188 -0.113953 -1.32361e-009 8.75227e-006 -1.45912e-008 8.06309 11.4745 -2.6044 0.618511 -0.0662284 -1.49142 38.2363 1.78316 0.0269045 38.0975 -25.6936 3.85735 9.84982 41.7679 3.18237 -8.01737 9.59088 -0.535315 -45.1863 3.53085 -3.29556 -26.5874 -7.7477 2.77029 -3.57866 31.1488 -16.9282 5.82328 9.61819 -0.917488 0.33896 -11.3505 -4.4481 7.31692 -21.1585 -3.07058 -0.986091 31.2805 -14.6878 -1.69875 -9.35115 -0.20718 0.0462048 0.000530889 0.662642 
